<?xml version="1.0" encoding="utf-8"?>
<!-- Generator: Adobe Illustrator 23.0.4, SVG Export Plug-In . SVG Version: 6.00 Build 0)  -->
<svg version="1.1" id="Capa_1" xmlns="http://www.w3.org/2000/svg" xmlns:xlink="http://www.w3.org/1999/xlink" x="0px" y="0px"
	 viewBox="0 0 18 14" style="enable-background:new 0 0 18 14;" xml:space="preserve">
<style type="text/css">
	.st0{enable-background:new    ;}
</style>
<title>48 - icon</title>
<desc>Created with Sketch.</desc>
<g id="Symbols">
	<g id="Card-_Desktop" transform="translate(-14.000000, -411.000000)">
		<g class="st0">
			<path fill="#0071CE" d="M29,424.3c-0.4,0.4-1,0.6-1.6,0.6c-0.6,0-1.2-0.2-1.6-0.6s-0.6-1-0.6-1.6h-4.5c0,0.6-0.2,1.1-0.6,1.6s-1,0.6-1.6,0.6
				c-0.6,0-1.1-0.2-1.6-0.6s-0.6-1-0.6-1.6h-2.2v-11.1h11.1v3.3h3.9l2.8,2.8v5h-2.2C29.7,423.3,29.4,423.8,29,424.3z M24.1,421.6
				v-8.9h-8.9v8.9h1.4c0.2-0.3,0.5-0.6,0.8-0.8c0.3-0.2,0.7-0.3,1.1-0.3c0.4,0,0.8,0.1,1.1,0.3c0.3,0.2,0.6,0.5,0.8,0.8H24.1z
				 M18.5,421.6c-0.3,0-0.5,0.1-0.7,0.3c-0.2,0.2-0.3,0.5-0.3,0.8c0,0.3,0.1,0.5,0.3,0.8c0.2,0.2,0.5,0.3,0.7,0.3
				c0.3,0,0.6-0.1,0.8-0.3c0.2-0.2,0.3-0.5,0.3-0.8c0-0.3-0.1-0.6-0.3-0.8C19.1,421.7,18.9,421.6,18.5,421.6L18.5,421.6z
				 M26.3,420.8c0.3-0.2,0.7-0.3,1.1-0.3c0.4,0,0.8,0.1,1.1,0.3c0.3,0.2,0.6,0.5,0.8,0.8h1.4v-2.2h-1.7c-0.2,0-0.3-0.1-0.4-0.2
				c-0.1-0.1-0.2-0.2-0.2-0.4c0-0.1,0.1-0.3,0.2-0.4c0.1-0.1,0.2-0.2,0.4-0.2h1.7v-0.1l-2.1-2.1h-3.4v5.6h0.3
				C25.7,421.3,26,421,26.3,420.8z M26.7,421.9c-0.2,0.2-0.3,0.5-0.3,0.8c0,0.3,0.1,0.5,0.3,0.8c0.2,0.2,0.5,0.3,0.7,0.3h0
				c0.3,0,0.5-0.1,0.7-0.3c0.2-0.2,0.3-0.5,0.3-0.8c0-0.3-0.1-0.6-0.3-0.8c-0.2-0.2-0.5-0.3-0.7-0.3
				C27.2,421.6,26.9,421.7,26.7,421.9z"/>
		</g>
	</g>
</g>
</svg>
